<svg preserveAspectRatio="none" overflow="visible" style="display: block;" width="11.9979" height="13" viewBox="0 0 11.9979 13" fill="none" xmlns="http://www.w3.org/2000/svg">
<path id="Vector" d="M8.49928 12.5C8.49928 12.6326 8.4466 12.7598 8.35283 12.8536C8.25906 12.9473 8.13188 13 7.99928 13H3.99928C3.86667 13 3.73949 12.9473 3.64572 12.8536C3.55195 12.7598 3.49928 12.6326 3.49928 12.5C3.49928 12.3674 3.55195 12.2402 3.64572 12.1464C3.73949 12.0527 3.86667 12 3.99928 12H7.99928C8.13188 12 8.25906 12.0527 8.35283 12.1464C8.4466 12.2402 8.49928 12.3674 8.49928 12.5ZM11.8624 9.49625C11.5149 8.89875 10.9993 7.20813 10.9993 5C10.9993 3.67392 10.4725 2.40215 9.53481 1.46447C8.59713 0.526784 7.32536 0 5.99928 0C4.67319 0 3.40142 0.526784 2.46374 1.46447C1.52606 2.40215 0.999276 3.67392 0.999276 5C0.999276 7.20875 0.483026 8.89875 0.136151 9.49625C0.0475697 9.64815 0.000609559 9.82073 5.89435e-06 9.99657C-0.000597771 10.1724 0.0451765 10.3453 0.132712 10.4978C0.220248 10.6503 0.34645 10.777 0.498591 10.8652C0.650732 10.9534 0.823433 10.9999 0.999276 11H10.9993C11.1751 10.9998 11.3477 10.9532 11.4997 10.865C11.6518 10.7768 11.7779 10.65 11.8654 10.4975C11.9528 10.345 11.9986 10.1722 11.9979 9.99641C11.9973 9.82062 11.9503 9.64811 11.8618 9.49625H11.8624Z" fill="#F7FAF8"/>
</svg>
